<?xml version="1.0" encoding="utf-8"?>
<!-- Generator: Adobe Illustrator 16.0.0, SVG Export Plug-In . SVG Version: 6.00 Build 0)  -->
<!DOCTYPE svg PUBLIC "-//W3C//DTD SVG 1.1//EN" "http://www.w3.org/Graphics/SVG/1.1/DTD/svg11.dtd">
<svg version="1.1" xmlns="http://www.w3.org/2000/svg" xmlns:xlink="http://www.w3.org/1999/xlink" x="0px" y="0px" width="480px"
	 height="318px" viewBox="0 0 480 318" enable-background="new 0 0 480 318" xml:space="preserve">
<g id="kropp">
	<path fill="#FFFFFF" d="M185.333,37.083"/>
	
		<radialGradient id="SVGID_1_" cx="239.1445" cy="132.167" r="151.3297" gradientTransform="matrix(1 0 0 2 0 -132.167)" gradientUnits="userSpaceOnUse">
		<stop  offset="0" style="stop-color:#C49A6C"/>
		<stop  offset="0.3607" style="stop-color:#C2976A"/>
		<stop  offset="0.5776" style="stop-color:#BA8F63"/>
		<stop  offset="0.7565" style="stop-color:#AC8158"/>
		<stop  offset="0.9137" style="stop-color:#996D48"/>
		<stop  offset="1" style="stop-color:#8B5E3C"/>
	</radialGradient>
	<path fill="url(#SVGID_1_)" d="M253.9,59.171c7.202-1.025,50.981-7.789,48.129-20.446c-4.388-19.468-57.286,14.953-57.286,14.953
		s36.313-23.885,25.654-32.736S239.5,52.318,239.5,52.318s17.672-50.684,1.563-52.043s-9.913,53.597-9.913,53.597
		s-36.094-33.662-44.753-18.93c-8.844,15.046,38.15,24.173,38.15,24.173l0.323,0.002c-82.771,9.181-154.247,97.05-154.247,204.111
		c0,0.285,0.007,0.569,0.008,0.854h337.025c0.001-0.285,0.009-0.569,0.009-0.854C407.666,156.375,336.468,68.638,253.9,59.171z"/>
	<g>
		<defs>
			<path id="SVGID_2_" d="M253.9,59.171c7.202-1.025,50.981-7.789,48.129-20.446c-4.388-19.468-57.286,14.953-57.286,14.953
				s36.313-23.885,25.654-32.736S239.5,52.318,239.5,52.318s17.672-50.684,1.563-52.043s-9.913,53.597-9.913,53.597
				s-36.094-33.662-44.753-18.93c-8.844,15.046,38.15,24.173,38.15,24.173l0.323,0.002c-82.771,9.181-154.247,97.05-154.247,204.111
				c0,0.285,0.007,0.569,0.008,0.854h337.025c0.001-0.285,0.009-0.569,0.009-0.854C407.666,156.375,336.468,68.638,253.9,59.171z"/>
		</defs>
		<clipPath id="SVGID_3_">
			<use xlink:href="#SVGID_2_"  overflow="visible"/>
		</clipPath>
		<path opacity="0.03" clip-path="url(#SVGID_3_)" d="M484,363.75l-482,6l35-209l106-63c0,0-97,199,97,200
			c205.997,1.062,102-198,102-198l84,52L484,363.75z"/>
		<path opacity="0.1" clip-path="url(#SVGID_3_)" d="M255.133,59.006c0,0,14.273-4.362,26.078-10.161
			c19.306-9.483,19.982-18.627,19.982-18.627l8.468,19.305L255.133,59.006z"/>
		<path opacity="0.1" clip-path="url(#SVGID_3_)" d="M248.021,51.555c0,0,10.5-8.805,14.563-16.595s6.435-17.273,6.435-17.273
			l11.516,9.822L248.021,51.555z"/>
		<path opacity="0.1" clip-path="url(#SVGID_3_)" d="M224.548,59.115c0,0-13.148-5.19-22.589-10.947
			c-13.886-8.467-17.273-19.305-17.273-19.305l-6.435,17.612l26.417,12.531L224.548,59.115z"/>
		<ellipse opacity="0.1" clip-path="url(#SVGID_3_)" cx="236.584" cy="265.66" rx="83.88" ry="59.542"/>
	</g>
	<path d="M351.658,62.054"/>
	<path d="M369.608,44.442"/>
	<path d="M370.285,56.296"/>
</g>
<g id="nos_x5F_bg">
	<path fill="#D3A57D" d="M314.381,264.083c0.02-0.52,0.055-1.037,0.055-1.561c0-31.151-34.855-56.405-77.852-56.405
		c-42.996,0-77.851,25.254-77.851,56.405c0,0.523,0.035,1.041,0.055,1.561H314.381z"/>
</g>
<g id="nos">
	<path opacity="0.2" d="M270.434,231.893c0,10.343-21.84,22.064-33.85,22.064c-11.831,0-33.849-11.722-33.849-22.064
		c0-10.342,15.435-17.099,34.129-17.099S270.434,221.551,270.434,231.893z"/>
	<linearGradient id="SVGID_4_" gradientUnits="userSpaceOnUse" x1="236.584" y1="249.9863" x2="236.584" y2="214.1602">
		<stop  offset="0" style="stop-color:#E2818B"/>
		<stop  offset="1" style="stop-color:#F5989D"/>
	</linearGradient>
	<path fill="url(#SVGID_4_)" d="M269.425,231.259c0,10.343-24.427,18.728-32.841,18.728c-8.413,0-32.84-8.385-32.84-18.728
		c0-10.342,14.975-17.099,33.112-17.099C254.993,214.16,269.425,220.917,269.425,231.259z"/>
	
		<ellipse transform="matrix(0.7783 0.6278 -0.6278 0.7783 197.4777 -87.6549)" fill="#231F20" cx="222.877" cy="235.844" rx="4.262" ry="7.32"/>
	
		<ellipse transform="matrix(-0.7783 0.6279 -0.6279 -0.7783 595.9959 261.2571)" fill="#231F20" cx="251.876" cy="235.844" rx="4.262" ry="7.32"/>
	<path opacity="0.1" fill="#FFFFFF" d="M257.545,222.9c0,3.339-9.529-0.614-20.961-0.614s-20.438,3.953-20.438,0.614
		c0-3.338,9.268-6.044,20.699-6.044S257.545,219.562,257.545,222.9z"/>
</g>
<g id="ögonbryn">
	<path opacity="0.1" d="M211.094,105.039l-5.416,18.837c0,0-10.596-2.354-24.018,2.826c-8.408,3.245-22.605,14.835-22.605,14.835
		l-0.942-2.354c0,0,8.298-18,26.608-26.138C203.794,104.568,211.094,105.039,211.094,105.039z"/>
	<path opacity="0.1" d="M262.113,105.039l5.416,18.837c0,0,10.596-2.354,24.018,2.826c8.408,3.245,22.605,14.835,22.605,14.835
		l0.941-2.354c0,0-8.298-18-26.607-26.138C269.413,104.568,262.113,105.039,262.113,105.039z"/>
	<path fill="#754C29" d="M211.094,103.039l-5.416,18.837c0,0-10.596-2.354-24.018,2.826c-8.408,3.245-22.605,14.835-22.605,14.835
		l-0.942-2.354c0,0,8.298-18,26.608-26.138C203.794,102.568,211.094,103.039,211.094,103.039z"/>
	<path fill="#754C29" d="M262.113,103.039l5.416,18.837c0,0,10.596-2.354,24.018,2.826c8.408,3.245,22.605,14.835,22.605,14.835
		l0.941-2.354c0,0-8.298-18-26.607-26.138C269.413,102.568,262.113,103.039,262.113,103.039z"/>
</g>
<g id="ögon">
	<path fill="#AD8863" d="M219.161,175.814c3.421-6.029,10.723-10.216,19.186-10.216s15.766,4.187,19.187,10.216h5.561
		c-3.625-8.857-13.348-15.216-24.747-15.216c-11.4,0-21.122,6.359-24.747,15.216H219.161z"/>
	<ellipse fill="#AD8863" cx="196.26" cy="169.382" rx="28.845" ry="27.314"/>
	<ellipse fill="#AD8863" cx="280.26" cy="169.382" rx="28.845" ry="27.314"/>
	<path fill="#616363" d="M219.161,172.814c3.421-6.029,10.723-10.216,19.186-10.216s15.766,4.187,19.187,10.216h5.561
		c-3.625-8.857-13.348-15.216-24.747-15.216c-11.4,0-21.122,6.359-24.747,15.216H219.161z"/>
	<ellipse fill="#EBF6F7" cx="196.26" cy="164.382" rx="28.845" ry="27.314"/>
	<ellipse fill="#EBF6F7" cx="280.26" cy="164.382" rx="28.845" ry="27.314"/>
	<path fill="#FFFFFF" d="M222.172,161.262c-1.646-11.911-12.653-21.12-25.999-21.12c-13.345,0-24.353,9.209-25.999,21.12H222.172z"
		/>
	<path fill="#FFFFFF" d="M306.145,162.107c-1.645-11.911-12.652-21.12-25.998-21.12s-24.354,9.209-25.998,21.12H306.145z"/>
	<path opacity="0.3" fill="#616363" d="M207.688,162.579c0,0-5.745-4.137-11.952-2.256s-9.066,9.832-9.066,9.832
		c0,0,2.979-3.017,6.139-3.855c2.988-0.793,5.897,1.599,5.897,1.599s0.234-1.713-2.482-2.88c-1.527-0.656-3.348-0.129-3.348-0.129
		s2.921-3.102,7.19-3.286C203.215,161.468,207.688,162.579,207.688,162.579z"/>
	<path opacity="0.3" fill="#616363" d="M270.249,163.436c0,0,5.745-4.137,11.952-2.256c6.206,1.881,9.066,9.832,9.066,9.832
		s-2.979-3.017-6.14-3.855c-2.988-0.793-5.897,1.599-5.897,1.599s-0.234-1.713,2.482-2.88c1.527-0.656,3.348-0.129,3.348-0.129
		s-2.921-3.102-7.189-3.286C274.723,162.325,270.249,163.436,270.249,163.436z"/>
</g>
<g id="tassar">
	<path opacity="0.1" d="M64.302,238.75C19.121,238.75,15,255.746,15,277.807s7.387,39.943,16.5,39.943S48,299.867,48,277.807
		c0-0.237-0.006-0.471-0.007-0.707h0.015c-0.001,0.236-0.007,0.47-0.007,0.707c0,22.061,7.387,39.943,16.5,39.943
		S81,299.867,81,277.807c0-0.237-0.006-0.471-0.007-0.707h0.015c-0.001,0.236-0.007,0.47-0.007,0.707
		c0,22.061,7.387,39.943,16.5,39.943s16.5-17.883,16.5-39.943S105.294,238.75,64.302,238.75z"/>
	<linearGradient id="SVGID_5_" gradientUnits="userSpaceOnUse" x1="64.5" y1="312.75" x2="64.5" y2="233.75">
		<stop  offset="0" style="stop-color:#E2818B"/>
		<stop  offset="1" style="stop-color:#F5989D"/>
	</linearGradient>
	<path fill="url(#SVGID_5_)" d="M64.302,233.75C19.121,233.75,15,250.746,15,272.807s7.387,39.943,16.5,39.943
		S48,294.867,48,272.807c0-0.237-0.006-0.471-0.007-0.707h0.015c-0.001,0.236-0.007,0.47-0.007,0.707
		c0,22.061,7.387,39.943,16.5,39.943S81,294.867,81,272.807c0-0.237-0.006-0.471-0.007-0.707h0.015
		c-0.001,0.236-0.007,0.47-0.007,0.707c0,22.061,7.387,39.943,16.5,39.943s16.5-17.883,16.5-39.943S105.294,233.75,64.302,233.75z"
		/>
	<g>
		<defs>
			<path id="SVGID_6_" d="M64.302,233.75C19.121,233.75,15,250.746,15,272.807s7.387,39.943,16.5,39.943S48,294.867,48,272.807
				c0-0.237-0.006-0.471-0.007-0.707h0.015c-0.001,0.236-0.007,0.47-0.007,0.707c0,22.061,7.387,39.943,16.5,39.943
				S81,294.867,81,272.807c0-0.237-0.006-0.471-0.007-0.707h0.015c-0.001,0.236-0.007,0.47-0.007,0.707
				c0,22.061,7.387,39.943,16.5,39.943s16.5-17.883,16.5-39.943S105.294,233.75,64.302,233.75z"/>
		</defs>
		<clipPath id="SVGID_7_">
			<use xlink:href="#SVGID_6_"  overflow="visible"/>
		</clipPath>
		<path opacity="0.1" clip-path="url(#SVGID_7_)" fill="#231F20" d="M110.606,253.694c2.531,5.615,4.869,12.461,3.872,19.419
			c-4.096,28.57-11.731,34.325-17.375,34.214c-9.111-0.18-15.824-22.423-15.824-44.483c0,22.061-7.667,43.931-16.78,43.931
			s-16.306-21.759-16.306-43.819c0,22.061-8.963,44.483-16.156,44.372c-5.533-0.086-16.561-12.153-16.561-34.214
			c0-7.1-0.309-13.155,1.862-19.156H-3.846v78.416h144.042v-78.416L110.606,253.694z"/>
	</g>
	<path opacity="0.1" fill="#FFFFFF" d="M100.365,248.317c0,2.722-3.784,5.856-9.766,3.938c0,0-8.378-2.996-26.1-2.742
		s-26.955,3.037-26.955,3.037c-6.661,1.624-9.234-1.511-9.234-4.232l0,0c0-2.722,2.422-3.769,6.434-4.929
		c0,0,13.417-4.639,29.755-4.639s29.432,4.639,29.432,4.639C97.338,244.779,100.365,245.596,100.365,248.317L100.365,248.317z"/>
	<path opacity="0.1" d="M415.698,238.75c45.181,0,49.302,16.996,49.302,39.057s-7.387,39.943-16.5,39.943S432,299.867,432,277.807
		c0-0.237,0.006-0.471,0.008-0.707h-0.016c0.002,0.236,0.008,0.47,0.008,0.707c0,22.061-7.387,39.943-16.5,39.943
		S399,299.867,399,277.807c0-0.237,0.006-0.471,0.008-0.707h-0.016c0.002,0.236,0.008,0.47,0.008,0.707
		c0,22.061-7.387,39.943-16.5,39.943S366,299.867,366,277.807S374.706,238.75,415.698,238.75z"/>
	
		<linearGradient id="SVGID_8_" gradientUnits="userSpaceOnUse" x1="1.5005" y1="312.751" x2="1.5005" y2="233.751" gradientTransform="matrix(-1 0 0 1 417 0)">
		<stop  offset="0" style="stop-color:#E2818B"/>
		<stop  offset="1" style="stop-color:#F5989D"/>
	</linearGradient>
	<path fill="url(#SVGID_8_)" d="M415.698,233.75c45.181,0,49.302,16.996,49.302,39.057s-7.387,39.943-16.5,39.943
		S432,294.867,432,272.807c0-0.237,0.006-0.471,0.008-0.707h-0.016c0.002,0.236,0.008,0.47,0.008,0.707
		c0,22.061-7.387,39.943-16.5,39.943S399,294.867,399,272.807c0-0.237,0.006-0.471,0.008-0.707h-0.016
		c0.002,0.236,0.008,0.47,0.008,0.707c0,22.061-7.387,39.943-16.5,39.943S366,294.867,366,272.807S374.706,233.75,415.698,233.75z"
		/>
	<g>
		<defs>
			<path id="SVGID_9_" d="M415.698,233.75c45.181,0,49.302,16.996,49.302,39.057s-7.387,39.943-16.5,39.943S432,294.867,432,272.807
				c0-0.237,0.006-0.471,0.008-0.707h-0.016c0.002,0.236,0.008,0.47,0.008,0.707c0,22.061-7.387,39.943-16.5,39.943
				S399,294.867,399,272.807c0-0.237,0.006-0.471,0.008-0.707h-0.016c0.002,0.236,0.008,0.47,0.008,0.707
				c0,22.061-7.387,39.943-16.5,39.943S366,294.867,366,272.807S374.706,233.75,415.698,233.75z"/>
		</defs>
		<clipPath id="SVGID_10_">
			<use xlink:href="#SVGID_9_"  overflow="visible"/>
		</clipPath>
		<path opacity="0.1" clip-path="url(#SVGID_10_)" fill="#231F20" d="M369.394,253.694c-2.531,5.615-4.869,12.461-3.872,19.419
			c4.096,28.57,11.731,34.325,17.375,34.214c9.111-0.18,15.824-22.423,15.824-44.483c0,22.061,7.666,43.931,16.779,43.931
			s16.306-21.759,16.306-43.819c0,22.061,8.964,44.483,16.155,44.372c5.533-0.086,16.561-12.153,16.561-34.214
			c0-7.1,0.31-13.155-1.861-19.156h21.186v78.416H339.804v-78.416L369.394,253.694z"/>
	</g>
	<path opacity="0.1" fill="#FFFFFF" d="M379.635,248.317c0,2.722,3.784,5.856,9.766,3.938c0,0,8.379-2.996,26.1-2.742
		s26.955,3.037,26.955,3.037c6.66,1.624,9.234-1.511,9.234-4.232l0,0c0-2.722-2.422-3.769-6.434-4.929
		c0,0-13.418-4.639-29.756-4.639s-29.432,4.639-29.432,4.639C382.662,244.779,379.635,245.596,379.635,248.317L379.635,248.317z"/>
</g>
</svg>
