<svg xmlns="http://www.w3.org/2000/svg" width="124" height="50"><path fill-rule="evenodd" clip-rule="evenodd" fill="#8ED5B6" d="M8 41h10V0L8 10z"/><path fill-rule="evenodd" clip-rule="evenodd" fill="#80BFA3" d="M25 50h-8l-9-9h26zM20 19H0l8-9h20z"/><path fill-rule="evenodd" clip-rule="evenodd" fill="#F95E00" d="M38 50h9V0l-9 10z"/><path fill-rule="evenodd" clip-rule="evenodd" fill="#DB5404" d="M38 19h-9.259L38 9.741z"/><path fill-rule="evenodd" clip-rule="evenodd" fill="#F95E00" d="M86 10H54.519L63.926.241h13zM77 30H54l10-10h13zM86 50H64l-9.407-8.759L86 41z"/><path fill-rule="evenodd" clip-rule="evenodd" fill="#DB5404" d="M86 22l-10 8V10h10zM64 50l-10-8.889V30h10z"/><path fill-rule="evenodd" clip-rule="evenodd" fill="#8ED5B6" d="M98 41h10V0L98 10z"/><path fill-rule="evenodd" clip-rule="evenodd" fill="#80BFA3" d="M115 50h-8l-9-9h26zM110 19H90l8-9h20z"/></svg>