<?xml version="1.0" standalone="no"?>
<!DOCTYPE svg PUBLIC "-//W3C//DTD SVG 20010904//EN"
 "http://www.w3.org/TR/2001/REC-SVG-20010904/DTD/svg10.dtd">
<svg version="1.0" xmlns="http://www.w3.org/2000/svg"
 width="1984.000000pt" height="1984.000000pt" viewBox="0 0 1984.000000 1984.000000"
 preserveAspectRatio="xMidYMid meet">
<metadata>
Created by potrace 1.11, written by Peter Selinger 2001-2013
</metadata>
<g transform="translate(0.000000,1984.000000) scale(0.100000,-0.100000)"
fill="#000000" stroke="none">
<path d="M7513 13913 c-7 -2 -13 -8 -13 -13 0 -5 -21 -31 -47 -58 -27 -27 -75
-79 -108 -117 -33 -37 -76 -84 -95 -104 -19 -21 -62 -68 -95 -106 -33 -37 -71
-80 -85 -95 -14 -15 -47 -53 -75 -84 -27 -31 -63 -71 -80 -89 -36 -39 -193
-212 -215 -237 -30 -33 -145 -163 -170 -190 -14 -15 -56 -63 -95 -106 -38 -43
-77 -85 -85 -94 -8 -9 -49 -54 -90 -100 -41 -47 -93 -105 -115 -129 -22 -24
-374 -379 -782 -788 -409 -409 -743 -746 -743 -751 0 -4 331 -6 736 -5 581 2
733 -1 725 -10 -6 -8 -6 -18 -1 -27 4 -7 4 -24 0 -36 -6 -14 -5 -26 0 -29 6
-4 7 -13 1 -23 -6 -11 -6 -24 0 -34 6 -10 6 -19 0 -23 -7 -3 -7 -15 -1 -30 6
-15 6 -27 0 -30 -5 -3 -6 -15 0 -29 4 -12 4 -29 0 -36 -5 -8 -4 -22 1 -31 6
-11 5 -20 -1 -24 -6 -3 -6 -15 0 -29 5 -13 6 -27 3 -30 -9 -8 -9 -66 -1 -66 4
0 3 -13 -2 -30 -5 -16 -5 -30 0 -30 4 0 5 -15 0 -33 -4 -18 -3 -43 1 -55 5
-12 5 -22 1 -22 -8 0 -7 -122 1 -144 4 -9 2 -18 -3 -21 -6 -3 -6 -15 0 -30 6
-15 6 -25 0 -25 -5 0 -5 -12 0 -29 4 -15 4 -34 0 -42 -5 -7 -4 -21 1 -30 6
-11 5 -20 -1 -24 -6 -3 -6 -15 0 -29 5 -13 6 -27 3 -30 -9 -8 -9 -66 -1 -66 4
0 3 -13 -2 -30 -5 -16 -6 -30 -2 -30 8 0 6 -86 -3 -99 -3 -5 -1 -12 5 -16 6
-4 7 -12 1 -24 -6 -10 -6 -23 -1 -31 5 -8 6 -18 3 -24 -8 -12 -8 -124 0 -132
3 -4 2 -14 -2 -23 -11 -20 -11 -30 0 -58 5 -13 5 -23 1 -23 -4 0 -7 -16 -7
-35 0 -19 3 -35 7 -35 4 0 3 -11 -2 -25 -6 -15 -6 -27 0 -30 6 -3 6 -15 0 -30
-6 -15 -6 -27 0 -30 6 -4 7 -13 1 -24 -5 -9 -6 -23 -1 -30 4 -8 4 -27 0 -42
-5 -17 -5 -29 0 -29 6 0 6 -10 0 -25 -6 -15 -6 -27 0 -30 6 -3 6 -15 0 -30 -6
-15 -6 -27 0 -30 6 -4 7 -13 1 -24 -6 -10 -6 -23 -1 -31 5 -8 5 -21 0 -31 -5
-9 -7 -19 -3 -23 9 -9 10 -58 1 -83 -4 -12 -3 -25 2 -28 6 -4 7 -13 1 -24 -6
-10 -6 -23 -1 -31 5 -8 6 -18 3 -24 -8 -12 -8 -124 0 -132 3 -4 2 -15 -3 -25
-7 -11 -7 -20 0 -24 6 -3 6 -15 0 -30 -6 -15 -6 -27 0 -30 6 -4 7 -13 1 -24
-6 -10 -6 -23 -1 -31 5 -8 6 -18 3 -24 -8 -12 -8 -124 0 -132 3 -4 2 -14 -2
-23 -13 -24 -13 -24 -2 -53 6 -16 7 -28 3 -28 -4 0 -7 -16 -7 -35 0 -19 3 -35
7 -35 4 0 3 -11 -2 -25 -6 -15 -6 -27 0 -30 6 -3 6 -15 0 -30 -6 -15 -6 -27 0
-30 6 -4 7 -13 1 -24 -5 -9 -6 -23 -1 -30 4 -8 4 -27 0 -42 -5 -17 -5 -29 0
-29 6 0 6 -10 0 -25 -6 -15 -6 -27 0 -30 6 -3 6 -15 0 -30 -6 -15 -6 -27 0
-30 6 -4 7 -13 1 -24 -6 -10 -6 -23 -1 -31 5 -8 5 -21 0 -31 -5 -9 -7 -19 -3
-23 9 -9 10 -58 1 -83 -4 -12 -3 -25 2 -28 6 -4 7 -13 1 -24 -6 -10 -6 -23 -1
-31 5 -8 6 -18 3 -24 -8 -12 -8 -124 0 -132 3 -4 2 -15 -3 -25 -7 -11 -7 -20
0 -24 6 -3 6 -15 0 -30 -6 -15 -6 -27 0 -30 6 -4 7 -13 1 -24 -6 -10 -6 -23
-1 -31 5 -8 6 -18 3 -24 -8 -12 -8 -124 0 -132 3 -4 2 -14 -2 -23 -13 -24 -13
-24 -2 -53 6 -16 7 -28 3 -28 -4 0 -7 -16 -7 -35 0 -19 3 -35 7 -35 4 0 3 -11
-2 -25 -6 -15 -6 -27 0 -30 6 -3 6 -15 0 -30 -6 -15 -6 -27 0 -30 6 -4 7 -13
1 -24 -5 -9 -6 -23 -1 -30 4 -8 4 -27 0 -42 -5 -17 -5 -29 0 -29 6 0 6 -10 0
-25 -6 -15 -6 -27 0 -30 6 -3 6 -15 0 -30 -6 -15 -6 -27 0 -30 6 -4 7 -13 1
-24 -6 -10 -6 -23 -1 -31 5 -8 5 -21 0 -30 -5 -9 -5 -22 0 -30 5 -8 7 -17 5
-21 -8 -12 -10 -128 -3 -135 4 -4 3 -14 -2 -24 -5 -10 -6 -20 -3 -24 3 -3 330
-6 726 -6 714 0 719 0 714 20 -3 11 -1 22 3 25 5 3 5 19 0 35 -5 17 -6 30 -2
30 8 0 6 85 -2 106 -3 8 -1 14 3 14 5 0 5 16 1 35 -4 19 -5 35 -1 35 7 0 5
139 -2 147 -3 2 -1 18 3 34 5 16 5 29 0 29 -4 0 -4 16 0 35 5 21 4 35 -2 35
-5 0 -6 5 -3 11 9 14 10 113 1 127 -3 6 -2 13 3 16 5 4 6 18 2 34 -5 15 -5 37
0 49 5 13 4 25 -1 28 -6 3 -6 15 0 30 5 13 5 27 1 29 -5 3 -5 24 -1 46 4 22 4
40 0 40 -4 0 -4 16 0 35 4 19 4 35 0 35 -5 0 -5 12 -1 28 5 15 5 37 0 49 -4
12 -4 25 1 28 5 3 5 18 0 35 -5 17 -6 30 -2 30 8 0 7 248 -1 256 -3 3 -2 17 3
30 5 13 5 26 1 28 -5 3 -5 24 -1 46 4 22 4 40 0 40 -4 0 -4 16 0 35 5 21 4 35
-2 35 -5 0 -6 5 -3 10 4 6 6 32 6 58 -1 45 -1 63 -1 97 0 8 0 21 0 28 -1 6 0
42 1 80 1 37 -1 70 -4 73 -3 3 -1 19 3 35 5 16 5 29 0 29 -4 0 -4 16 0 35 5
21 4 35 -2 35 -5 0 -6 5 -3 11 9 14 10 113 1 127 -3 6 -2 13 3 16 5 4 6 18 2
34 -5 15 -5 37 0 49 5 13 4 25 -1 28 -6 3 -6 15 0 30 5 13 5 27 1 29 -5 3 -5
24 -1 46 4 22 4 40 0 40 -4 0 -4 16 0 35 5 21 4 35 -2 35 -5 0 -6 5 -3 10 4 6
6 32 6 58 -1 45 -1 63 -1 97 0 8 0 21 0 28 -1 6 0 42 1 80 1 37 -1 70 -4 73
-3 3 -1 19 3 35 5 16 5 29 0 29 -4 0 -4 16 0 35 5 21 4 35 -2 35 -5 0 -6 5 -3
11 9 14 10 113 1 127 -3 6 -2 13 3 16 5 4 6 18 2 34 -5 15 -5 37 0 49 5 13 4
25 -1 28 -6 3 -6 15 0 30 5 13 5 27 1 29 -5 3 -5 24 -1 46 4 22 4 40 0 40 -4
0 -4 16 0 35 5 21 4 35 -2 35 -5 0 -6 5 -3 10 4 6 6 32 6 58 -1 45 -1 63 -1
97 0 8 0 21 0 28 -1 6 0 42 1 80 1 37 -1 70 -4 73 -3 3 -1 19 3 35 5 16 5 29
0 29 -4 0 -4 16 0 35 5 21 4 35 -2 35 -5 0 -6 5 -3 11 9 14 10 113 1 127 -3 6
-2 13 3 16 5 4 6 18 2 34 -5 15 -5 37 0 49 5 13 4 25 -1 28 -6 3 -6 15 0 30 5
13 5 27 1 29 -5 3 -5 24 -1 46 4 22 4 40 0 40 -4 0 -4 16 0 35 5 21 4 35 -2
35 -5 0 -6 5 -3 10 4 6 6 32 6 58 -1 45 -1 63 -1 97 0 8 0 21 0 28 -1 6 0 42
1 80 1 37 -1 70 -4 73 -3 3 -1 19 3 35 5 16 5 29 0 29 -4 0 -4 16 0 35 5 21 4
35 -2 35 -5 0 -6 5 -3 11 9 14 10 113 1 127 -3 6 -2 13 3 16 5 4 6 18 2 34 -5
15 -5 37 0 49 5 13 4 25 -1 28 -6 3 -6 15 0 30 5 13 5 27 1 29 -5 3 -5 24 -1
46 4 22 4 40 0 40 -4 0 -4 16 0 35 5 21 4 35 -2 35 -5 0 -6 5 -3 10 4 6 6 32
6 58 -1 45 -1 63 -1 97 0 8 0 21 0 28 -1 6 0 42 1 80 1 37 -1 70 -4 73 -3 3
-1 19 3 35 5 16 5 29 0 29 -4 0 -4 16 0 35 5 21 4 35 -2 35 -5 0 -6 5 -3 11 9
14 10 113 1 127 -3 6 -2 13 3 16 5 4 6 18 2 34 -5 15 -5 37 0 49 5 13 4 25 -1
28 -6 3 -6 15 0 30 5 13 5 27 1 29 -5 3 -5 24 -1 46 4 22 4 40 0 40 -4 0 -4
16 0 35 5 21 4 35 -2 35 -5 0 -6 5 -3 10 4 6 6 32 6 58 -1 45 -1 63 -1 97 0 8
0 21 0 28 -1 6 0 42 1 80 1 37 -1 70 -4 73 -3 3 -1 19 3 35 5 16 5 29 0 29 -4
0 -4 16 0 35 5 21 4 35 -2 35 -5 0 -6 5 -3 11 9 14 10 113 1 127 -3 6 -2 13 3
16 5 4 6 18 2 34 -5 15 -5 37 0 49 5 13 4 25 -1 28 -6 3 -6 15 0 30 5 13 5 27
1 29 -5 3 -5 24 -1 46 4 22 4 40 0 40 -4 0 -4 16 0 35 5 21 4 35 -2 35 -5 0
-6 5 -3 10 4 6 6 32 6 58 -1 45 -1 63 -1 97 0 8 0 21 -1 28 0 6 1 38 2 69 2
32 1 60 -3 63 -3 3 -2 24 2 45 4 22 4 43 -1 46 -4 2 -6 11 -3 18 3 7 6 34 7
60 1 25 2 46 2 45 0 0 -6 -3 -12 -6z"/>
<path d="M2068 13108 c-441 -442 -832 -837 -868 -878 -36 -40 -83 -94 -105
-119 -22 -25 -61 -67 -86 -93 -25 -27 -44 -48 -41 -48 3 0 -3 -8 -14 -19 -10
-10 -46 -49 -79 -86 -33 -38 -67 -76 -75 -85 -8 -9 -44 -50 -80 -90 -36 -41
-76 -86 -89 -100 -13 -14 -46 -51 -75 -84 -28 -32 -60 -68 -71 -80 -11 -12
-49 -55 -85 -96 -36 -40 -69 -78 -75 -84 -5 -7 -30 -34 -55 -61 -25 -28 -72
-81 -105 -119 -33 -38 -77 -88 -97 -110 -21 -23 -38 -44 -38 -48 0 -5 -6 -8
-13 -8 -8 0 -14 -6 -14 -12 0 -9 19 -12 66 -11 36 2 71 5 78 8 7 2 13 1 13 -4
0 -5 18 -5 40 -1 22 4 40 4 40 0 0 -4 18 -4 40 0 22 4 40 4 40 0 0 -4 18 -4
40 0 22 4 40 4 40 0 0 -4 18 -4 40 0 22 4 40 4 40 0 0 -4 18 -4 40 0 22 4 40
4 40 0 0 -4 18 -4 40 0 22 4 40 4 40 0 0 -4 18 -4 40 0 22 4 40 4 40 0 0 -4
18 -4 40 0 22 4 40 4 40 0 0 -4 18 -4 40 0 22 4 40 4 40 0 0 -4 17 -4 38 0 21
4 47 4 58 0 10 -4 28 -4 39 0 11 4 29 4 40 0 11 -4 29 -4 40 0 11 4 32 4 46 0
15 -4 32 -4 39 0 7 4 25 4 40 0 15 -4 34 -3 44 2 15 8 17 4 16 -34 0 -68 -1
-90 -3 -146 -1 -28 1 -52 4 -52 3 0 3 -20 -1 -45 -4 -25 -4 -45 0 -45 4 0 4
-19 0 -42 -3 -24 -3 -54 0 -68 3 -14 3 -44 0 -67 -4 -24 -4 -43 0 -43 4 0 4
-18 0 -40 -4 -22 -4 -40 0 -40 4 0 4 -20 0 -45 -4 -25 -4 -45 0 -45 4 0 4 -20
0 -45 -4 -25 -4 -45 0 -45 4 0 4 -19 0 -42 -3 -24 -3 -54 0 -68 3 -14 3 -42
-1 -63 -3 -20 -3 -39 1 -42 4 -3 4 -23 0 -45 -4 -22 -4 -40 0 -40 4 0 4 -18 0
-40 -4 -22 -5 -42 -2 -45 7 -7 4 -154 -3 -166 -4 -5 -2 -9 3 -9 5 0 6 -17 2
-40 -4 -22 -4 -40 0 -40 4 0 4 -18 0 -40 -4 -22 -4 -40 0 -40 4 0 4 -18 0 -40
-4 -22 -4 -40 0 -40 4 0 4 -18 0 -40 -4 -22 -4 -40 0 -40 4 0 4 -18 0 -40 -4
-22 -4 -40 0 -40 4 0 4 -18 0 -40 -4 -22 -4 -40 0 -40 4 0 4 -18 0 -40 -4 -22
-4 -40 0 -40 4 0 4 -18 0 -40 -4 -22 -4 -40 0 -40 4 0 4 -18 0 -40 -4 -22 -4
-40 0 -40 4 0 4 -18 0 -40 -4 -22 -4 -40 0 -40 4 0 4 -18 0 -40 -4 -22 -4 -40
0 -40 4 0 4 -18 0 -40 -4 -22 -4 -40 0 -40 4 0 4 -18 0 -40 -4 -22 -4 -40 0
-40 4 0 4 -18 0 -40 -4 -23 -3 -40 2 -40 5 0 6 -5 3 -10 -8 -14 -9 -186 -1
-199 4 -5 2 -12 -3 -15 -4 -3 -5 -24 -1 -46 4 -22 4 -43 0 -45 -4 -3 -4 -19
-1 -37 4 -18 4 -50 0 -71 -3 -20 -3 -40 1 -42 4 -3 4 -20 0 -39 -4 -19 -4 -39
0 -46 4 -6 4 -26 1 -43 -4 -18 -4 -49 0 -70 3 -20 3 -39 -1 -42 -4 -3 -4 -23
0 -45 4 -22 4 -43 0 -45 -4 -3 -4 -21 0 -40 4 -19 4 -37 0 -40 -4 -3 -4 -21 0
-40 4 -19 5 -37 1 -39 -4 -3 -5 -23 -3 -46 4 -40 27 -65 723 -761 l719 -719
640 0 640 0 715 715 c393 393 715 717 715 719 0 5 -14 6 -85 6 -8 0 -22 0 -30
0 -8 0 -22 0 -30 0 -8 0 -22 0 -30 0 -8 0 -22 0 -30 0 -8 0 -22 0 -30 0 -8 0
-22 0 -30 0 -8 0 -22 0 -30 0 -8 0 -22 0 -30 0 -8 0 -22 0 -30 0 -8 0 -22 0
-30 0 -8 0 -22 0 -30 0 -8 0 -22 0 -30 0 -8 0 -22 0 -30 0 -8 0 -22 0 -30 0
-8 0 -22 0 -30 0 -8 0 -21 0 -27 0 -7 -1 -34 1 -61 2 -26 2 -47 0 -47 -4 0 -4
-10 -4 -23 1 -13 5 -30 5 -38 1 -8 -5 -21 -5 -28 0 -8 4 -27 4 -42 0 -16 -5
-29 -5 -29 0 0 5 -13 5 -30 0 -17 -5 -32 -5 -35 0 -3 5 -16 6 -28 2 -25 -8
-69 -8 -83 1 -6 3 -16 2 -24 -3 -8 -5 -21 -5 -30 0 -9 5 -22 5 -29 0 -8 -4
-27 -4 -42 0 -16 5 -29 5 -29 0 0 -5 -13 -5 -30 0 -17 5 -30 5 -30 0 0 -5 -13
-5 -30 0 -17 5 -30 5 -30 0 0 -5 -13 -5 -30 0 -17 5 -30 5 -30 0 0 -5 -13 -5
-30 0 -16 5 -30 6 -30 2 0 -4 -16 -7 -35 -7 -19 0 -35 3 -35 7 0 4 -13 3 -30
-2 -17 -5 -30 -6 -30 -2 0 4 -22 7 -50 7 -27 0 -50 -3 -50 -7 0 -4 -10 -4 -23
1 -13 5 -30 5 -38 1 -8 -5 -21 -5 -28 0 -8 4 -27 4 -42 0 -16 -5 -29 -5 -29 0
0 5 -13 5 -30 0 -17 -5 -32 -5 -35 0 -3 5 -16 6 -28 2 -25 -9 -74 -8 -83 1 -4
4 -14 2 -23 -3 -10 -5 -23 -5 -31 0 -8 5 -21 5 -30 0 -9 -5 -22 -5 -30 0 -8 5
-21 5 -30 0 -9 -5 -22 -5 -30 0 -8 5 -21 5 -30 0 -9 -5 -22 -5 -30 0 -8 5 -21
5 -31 -1 -11 -6 -20 -5 -24 1 -3 6 -15 6 -30 0 -15 -6 -27 -6 -30 0 -3 5 -15
6 -29 0 -12 -4 -29 -4 -36 0 -8 5 -21 5 -30 0 -9 -5 -22 -5 -29 0 -8 4 -27 4
-42 0 -16 -5 -29 -5 -29 -1 0 5 -11 7 -24 6 -22 -3 -23 -1 -16 26 5 16 5 29 0
29 -5 0 -5 13 0 29 4 15 4 34 0 42 -5 7 -6 17 -4 21 6 9 6 95 2 166 -2 23 -1
42 2 42 7 0 4 135 -3 147 -3 5 -2 15 3 23 4 7 4 23 0 36 -5 12 -6 25 -3 28 8
8 7 102 -1 115 -4 5 -2 12 3 16 7 3 7 15 1 30 -6 15 -6 27 0 30 6 3 6 15 0 30
-6 15 -6 27 0 30 6 3 6 15 0 30 -6 15 -6 27 0 30 6 3 6 15 0 30 -6 15 -6 27 0
30 6 3 6 15 0 30 -6 15 -6 27 0 30 6 3 6 15 0 30 -6 15 -6 27 0 30 6 3 6 15 0
30 -6 15 -6 27 0 30 6 3 6 15 0 30 -6 15 -6 27 1 30 5 4 7 11 4 16 -8 12 -12
99 -5 99 7 0 4 135 -3 147 -3 5 -2 15 3 23 4 7 4 23 0 36 -5 12 -6 25 -3 28 3
3 6 28 6 56 0 28 -3 53 -6 56 -3 3 -2 16 3 29 5 13 6 26 3 29 -7 7 -10 76 -3
76 6 0 3 267 -3 284 -3 7 -1 19 3 26 5 8 4 22 -1 31 -6 11 -5 20 1 24 5 3 6
15 1 28 -4 12 -4 36 -1 52 3 17 3 40 -1 52 -5 12 -4 25 1 28 5 3 5 18 0 35 -5
17 -6 30 -2 30 4 0 7 56 7 125 0 69 -3 125 -7 125 -4 0 -3 13 2 30 5 17 5 32
0 35 -5 3 -5 16 0 30 6 15 6 27 0 30 -6 3 -6 15 0 30 5 13 6 27 1 29 -4 3 -5
25 -1 49 3 25 3 54 -1 65 -5 12 -4 24 1 27 5 3 5 18 0 35 -5 17 -6 30 -2 30 8
0 6 155 -1 175 -3 6 -1 18 3 25 5 7 4 24 0 36 -6 14 -5 26 0 29 5 3 5 18 0 35
-5 17 -5 30 0 30 5 0 5 13 0 30 -5 17 -6 30 -2 30 4 0 7 11 7 25 0 14 -3 25
-6 25 -3 0 -4 11 -2 25 5 23 9 24 77 25 39 1 79 1 89 1 24 -1 65 -1 80 0 6 0
27 -1 44 -2 24 -1 38 4 52 22 10 13 32 38 47 54 16 17 56 62 89 100 33 37 76
85 95 106 19 20 51 56 70 79 19 23 49 56 65 74 27 28 116 128 200 224 17 19
48 54 70 78 22 24 58 65 80 90 22 26 51 59 65 74 14 15 48 53 75 85 28 31 61
69 75 84 53 59 107 120 165 185 33 38 75 84 94 104 18 20 39 46 47 58 13 19
13 22 -1 27 -8 4 -15 3 -15 -1 0 -8 -68 -8 -76 1 -3 3 -16 2 -28 -3 -13 -4
-29 -5 -36 0 -7 5 -23 4 -36 0 -12 -5 -24 -6 -27 -3 -4 3 -33 5 -67 4 -58 -1
-76 -2 -102 -1 -7 1 -38 0 -69 -1 -30 -1 -60 0 -65 4 -6 3 -16 2 -23 -3 -8 -4
-27 -4 -42 0 -16 5 -31 5 -34 0 -3 -5 -19 -5 -35 0 -16 5 -32 5 -35 0 -3 -4
-20 -5 -37 -1 -18 4 -42 6 -53 5 -24 -3 -64 -4 -87 -4 -10 0 -47 0 -82 -1 -35
-1 -69 2 -75 5 -6 4 -11 3 -11 -2 0 -5 -14 -7 -32 -3 -18 4 -50 4 -71 0 -20
-3 -39 -4 -41 0 -3 3 -36 4 -75 1 -39 -3 -71 -3 -71 0 0 3 -19 4 -42 3 -75 -3
-105 -4 -168 -3 -28 0 -55 29 -41 43 5 5 5 22 1 38 -5 16 -5 29 -2 29 9 0 6
76 -3 90 -3 6 -3 10 2 10 4 0 8 18 8 40 0 22 -3 40 -7 40 -4 0 -3 14 2 30 5
17 5 30 0 30 -5 0 -5 13 0 30 5 18 5 30 0 30 -6 0 -6 10 0 24 5 15 5 27 -2 34
-6 6 -6 12 1 16 7 4 7 15 1 31 -6 15 -6 27 0 30 6 3 6 15 0 30 -6 15 -6 27 0
30 6 3 6 15 0 30 -6 15 -6 27 0 30 6 3 6 15 0 30 -6 15 -6 27 1 30 5 4 7 11 4
16 -8 12 -12 99 -5 99 7 0 4 135 -3 147 -3 5 -2 15 3 23 4 7 4 23 0 36 -5 12
-6 25 -3 28 3 3 6 28 6 56 0 28 -3 53 -6 56 -3 3 -2 16 3 29 5 13 6 26 3 29
-7 7 -10 76 -3 76 7 0 4 260 -3 266 -3 3 -367 -356 -809 -798z"/>
<path d="M16442 13082 c-453 -455 -831 -837 -842 -850 -32 -40 -144 -166 -186
-209 -23 -24 -40 -43 -38 -43 2 0 -4 -8 -13 -18 -10 -11 -47 -52 -83 -92 -36
-40 -72 -81 -80 -90 -8 -9 -44 -50 -80 -91 -36 -41 -74 -83 -85 -95 -11 -11
-45 -48 -75 -83 -30 -35 -64 -73 -75 -85 -49 -55 -152 -171 -173 -196 -13 -16
-40 -46 -60 -68 -20 -21 -64 -70 -97 -107 -79 -91 -111 -126 -131 -147 -24
-25 -15 -30 50 -28 31 0 63 1 71 1 18 0 79 0 98 0 6 0 40 -1 75 -2 34 -1 65 0
67 3 3 3 23 2 45 -2 21 -4 44 -4 50 0 7 4 26 4 44 1 17 -4 47 -4 66 -1 19 3
56 3 83 -1 26 -3 47 -1 47 3 0 5 4 6 10 3 5 -3 33 -5 62 -5 69 1 76 1 159 -1
38 0 72 1 75 4 3 2 21 1 40 -3 19 -4 36 -4 39 0 2 4 23 4 45 0 22 -4 40 -5 40
-1 0 3 20 6 44 6 24 0 43 -2 41 -4 -2 -1 0 -14 6 -28 5 -13 6 -22 1 -20 -4 3
-7 -8 -7 -24 0 -16 3 -29 7 -29 4 0 3 -11 -2 -25 -6 -15 -6 -27 0 -30 6 -3 6
-15 0 -30 -6 -15 -6 -27 0 -30 7 -4 7 -13 0 -24 -5 -10 -7 -21 -4 -24 9 -9 10
-78 2 -83 -5 -3 -4 -14 2 -24 6 -12 7 -21 0 -25 -6 -4 -6 -15 0 -30 5 -14 6
-25 2 -25 -8 0 -8 -57 1 -66 3 -3 2 -16 -3 -28 -4 -13 -4 -29 0 -36 5 -8 6
-19 2 -25 -9 -14 -9 -45 0 -72 4 -13 3 -23 -2 -23 -5 0 -5 -12 0 -30 5 -16 5
-30 2 -30 -9 0 -7 -64 2 -79 4 -5 2 -12 -3 -16 -7 -4 -7 -15 -1 -30 6 -15 6
-25 0 -25 -5 0 -5 -12 -1 -28 5 -15 5 -37 0 -49 -5 -13 -4 -25 1 -28 7 -4 6
-13 0 -25 -7 -13 -7 -21 0 -25 6 -4 8 -11 4 -16 -9 -15 -11 -79 -2 -79 3 0 3
-13 -2 -30 -5 -16 -5 -30 -1 -30 5 0 5 -17 1 -38 -4 -21 -3 -48 1 -60 5 -12 5
-22 1 -22 -8 0 -6 -96 2 -117 3 -7 2 -13 -2 -13 -4 0 -7 -25 -7 -55 0 -30 3
-55 7 -55 4 0 3 -13 -2 -30 -5 -18 -5 -30 0 -30 6 0 6 -10 0 -25 -6 -15 -6
-26 0 -30 6 -4 7 -13 1 -24 -5 -9 -6 -23 -1 -30 4 -8 4 -27 0 -42 -5 -17 -5
-29 0 -29 6 0 6 -10 0 -25 -5 -14 -5 -27 0 -30 5 -3 5 -18 1 -33 -5 -15 -4
-37 0 -50 5 -12 5 -22 1 -22 -8 0 -6 -96 2 -117 3 -7 2 -13 -2 -13 -4 0 -7
-25 -7 -55 0 -30 3 -55 7 -55 4 0 3 -13 -2 -30 -5 -18 -5 -30 0 -30 6 0 6 -10
0 -25 -6 -15 -6 -26 0 -30 6 -4 7 -13 1 -24 -5 -9 -6 -23 -1 -30 4 -8 4 -27 0
-42 -5 -17 -5 -29 0 -29 6 0 6 -10 0 -25 -5 -14 -5 -27 0 -30 5 -3 5 -18 1
-33 -5 -15 -4 -37 0 -50 5 -12 5 -22 1 -22 -8 0 -6 -96 2 -117 3 -7 2 -13 -2
-13 -4 0 -7 -25 -7 -55 0 -30 3 -55 7 -55 4 0 3 -14 -2 -30 -5 -18 -5 -30 0
-30 6 0 6 -10 0 -25 -6 -15 -6 -26 0 -30 6 -4 7 -13 1 -24 -5 -9 -6 -23 -1
-30 4 -8 4 -27 0 -42 -5 -17 -5 -29 0 -29 6 0 6 -10 0 -25 -5 -14 -5 -27 0
-30 5 -3 5 -18 1 -33 -5 -15 -4 -37 0 -50 5 -12 5 -22 1 -22 -4 0 -7 -13 -7
-30 0 -16 3 -30 7 -30 4 0 5 -6 3 -12 -9 -23 -11 -108 -3 -108 4 0 3 -11 -2
-25 -6 -15 -6 -26 1 -30 5 -4 7 -10 4 -15 -3 -5 318 -333 715 -730 l720 -720
640 0 640 0 715 715 c626 626 758 766 687 726 -9 -5 -26 -5 -39 0 -13 5 -25 4
-28 -1 -3 -5 -15 -6 -28 -1 -12 5 -32 5 -44 0 -13 -5 -25 -4 -28 1 -3 6 -15 6
-30 0 -15 -6 -27 -6 -30 0 -3 5 -15 6 -28 1 -12 -5 -34 -5 -49 0 -16 4 -28 4
-28 -1 0 -5 -13 -5 -30 0 -17 5 -30 5 -30 0 0 -5 -13 -5 -29 0 -15 4 -34 4
-42 0 -7 -5 -20 -5 -29 0 -8 4 -22 4 -31 0 -8 -5 -20 -5 -27 -1 -7 4 -35 4
-62 1 -28 -4 -50 -3 -50 1 0 4 -13 4 -30 -1 -16 -5 -30 -6 -30 -2 0 4 -16 7
-35 7 -19 0 -35 -3 -35 -7 0 -4 -13 -3 -30 2 -17 5 -30 5 -30 0 0 -5 -13 -5
-30 0 -17 5 -30 5 -30 0 0 -5 -13 -5 -30 0 -17 5 -30 5 -30 0 0 -5 -13 -5 -30
0 -17 5 -30 5 -30 0 0 -5 -13 -5 -29 0 -15 4 -34 4 -42 0 -7 -5 -20 -5 -29 0
-8 4 -22 4 -31 0 -8 -5 -20 -5 -27 -1 -7 4 -35 4 -62 1 -28 -4 -50 -3 -50 1 0
4 -13 4 -30 -1 -16 -5 -30 -6 -30 -2 0 4 -16 7 -35 7 -19 0 -35 -3 -35 -7 0
-4 -13 -3 -30 2 -17 5 -30 5 -30 0 0 -5 -13 -5 -30 0 -17 5 -30 5 -30 0 0 -5
-13 -5 -30 0 -17 5 -30 5 -30 0 0 -5 -13 -5 -30 0 -17 5 -30 5 -30 0 0 -5 -13
-5 -29 0 -15 4 -34 4 -42 0 -7 -5 -20 -5 -29 0 -9 5 -22 5 -30 0 -8 -5 -18 -6
-23 -3 -13 8 -97 9 -97 1 0 -4 -10 -4 -23 1 -13 5 -30 5 -38 1 -8 -5 -21 -5
-28 0 -8 4 -27 4 -42 0 -16 -5 -29 -5 -29 0 0 5 -13 5 -30 0 -17 -5 -32 -5
-35 0 -3 5 -16 6 -28 2 -12 -4 -35 -6 -52 -5 -16 2 -36 3 -42 3 -7 0 -20 0
-28 0 -8 0 -22 0 -30 0 -8 0 -22 0 -30 0 -8 0 -22 0 -30 0 -8 0 -22 0 -30 0
-8 0 -22 0 -30 0 -8 0 -22 0 -30 0 -34 0 -44 4 -48 22 -3 10 -1 20 3 23 5 3 5
19 0 35 -5 17 -6 30 -2 30 8 0 7 68 -1 76 -3 3 -2 16 3 28 4 13 4 29 0 36 -5
8 -6 18 -3 23 3 5 6 31 6 57 0 26 -3 52 -6 57 -3 5 -2 15 3 23 4 7 4 24 0 36
-6 14 -5 26 0 29 5 3 5 18 0 35 -5 17 -5 30 0 30 5 0 5 13 0 30 -5 17 -5 30 0
30 5 0 5 13 0 30 -5 17 -5 30 0 30 5 0 5 13 0 30 -5 17 -5 30 0 30 5 0 5 13 0
30 -5 17 -5 30 0 30 5 0 5 13 0 30 -5 17 -5 30 0 30 5 0 5 13 0 30 -5 17 -5
30 0 30 5 0 5 13 0 30 -5 17 -5 30 0 30 5 0 5 13 0 30 -5 17 -5 30 0 30 5 0 5
13 0 30 -5 17 -5 30 0 30 5 0 5 13 0 30 -5 17 -5 30 0 30 5 0 5 13 0 30 -5 17
-5 30 0 30 5 0 5 13 0 30 -5 17 -5 30 0 30 5 0 5 13 0 30 -5 17 -5 30 0 30 5
0 5 13 0 30 -5 17 -5 30 0 30 5 0 5 12 1 28 -5 15 -5 37 0 49 5 13 4 25 -1 28
-6 3 -6 15 0 29 5 13 6 27 3 30 -7 7 -8 95 0 102 3 3 1 19 -3 35 -5 16 -6 29
-2 29 8 0 7 68 -1 76 -3 3 -2 16 3 28 4 12 4 29 0 37 -5 8 -5 21 -1 28 5 7 5
28 1 47 -4 19 -4 36 0 39 5 3 5 19 0 35 -5 17 -6 30 -2 30 8 0 7 68 -1 76 -3
3 -2 16 3 28 4 13 4 29 0 36 -5 8 -6 19 -3 24 8 13 7 102 -2 116 -3 5 -2 10 4
10 6 0 6 11 1 30 -5 17 -6 30 -2 30 4 0 7 16 7 35 0 19 -3 35 -7 35 -4 0 -3
14 2 30 5 17 6 30 2 30 -8 0 -7 68 1 76 3 3 2 17 -3 30 -6 14 -6 26 0 29 6 3
6 15 0 30 -6 15 -6 27 0 30 6 3 6 15 0 30 -6 15 -6 27 0 30 5 3 6 15 0 29 -4
12 -4 29 0 36 5 8 5 21 0 30 -5 9 -5 22 0 30 5 8 5 21 0 30 -5 9 -5 22 0 30 5
8 5 21 0 30 -5 9 -5 22 0 30 5 8 5 21 0 30 -5 9 -5 22 0 30 5 8 5 21 0 30 -5
9 -5 22 0 30 5 8 5 21 0 31 -5 9 -7 19 -4 22 8 8 7 153 -1 166 -3 6 -2 11 4
11 6 0 6 11 1 30 -5 17 -6 30 -2 30 4 0 7 11 7 25 0 14 -3 25 -6 25 -3 0 -4
11 -2 24 4 20 12 25 49 28 24 2 44 0 44 -3 0 -3 19 -3 43 1 24 3 55 3 69 -1
14 -4 31 -3 38 1 7 4 26 4 42 -1 25 -7 33 -4 56 23 15 16 38 42 52 57 14 15
52 58 85 96 33 37 76 85 95 106 19 21 58 64 85 95 28 32 66 75 86 96 20 21 35
38 33 38 -2 0 9 13 24 28 15 16 54 60 87 98 33 38 81 91 106 119 25 27 59 65
75 84 16 18 40 46 54 61 14 15 48 53 75 85 28 31 61 69 75 84 53 59 107 120
165 185 33 38 75 84 94 104 18 20 39 46 47 58 13 19 13 22 -1 27 -8 4 -15 3
-15 -1 0 -4 -18 -7 -40 -7 -22 0 -40 3 -40 7 0 4 -11 4 -23 -1 -13 -5 -30 -6
-37 -1 -7 5 -23 4 -36 0 -12 -5 -24 -6 -27 -3 -4 3 -33 5 -67 4 -58 -1 -76 -2
-102 -1 -7 1 -38 0 -69 -1 -30 -1 -60 0 -65 4 -6 3 -16 2 -23 -3 -8 -4 -27 -4
-42 0 -16 5 -31 5 -34 0 -3 -5 -19 -5 -35 0 -16 5 -32 5 -35 0 -3 -4 -20 -5
-37 -1 -18 4 -42 6 -53 5 -11 -1 -32 -3 -47 -3 -16 -1 -40 -1 -55 -2 -16 0
-35 0 -43 0 -8 1 -26 1 -40 0 -14 0 -31 0 -37 0 -26 2 -39 2 -94 0 -30 -1 -60
0 -65 4 -6 3 -16 2 -23 -3 -8 -4 -27 -4 -42 0 -16 5 -31 5 -34 0 -3 -5 -19 -5
-35 0 -17 5 -32 5 -35 0 -3 -5 -11 -7 -18 -5 -24 9 -82 11 -109 4 -15 -4 -30
-4 -33 1 -3 4 -21 4 -40 0 -28 -6 -35 -5 -39 9 -4 13 -6 97 -6 204 0 9 0 24 0
32 0 8 0 22 0 30 0 8 0 22 0 30 0 8 0 22 0 30 0 8 0 22 0 30 0 8 0 22 0 30 0
8 0 22 0 30 0 8 0 22 0 30 0 8 0 22 0 30 0 8 0 21 0 28 -1 6 1 31 2 55 2 23 0
42 -4 42 -4 0 -3 14 2 30 5 17 5 30 0 30 -5 0 -5 13 0 30 5 17 5 30 0 30 -5 0
-5 13 0 30 5 17 5 30 0 30 -5 0 -5 13 0 30 5 17 5 30 0 30 -5 0 -5 13 0 30 5
17 6 30 2 30 -8 0 -7 68 1 76 3 3 2 17 -3 30 -6 14 -6 26 1 29 5 4 7 11 3 16
-8 13 -9 97 -2 104 3 4 2 20 -2 36 -5 16 -6 29 -2 29 8 0 7 68 -1 76 -3 3 -2
16 3 28 4 12 4 29 0 37 -5 8 -5 21 0 28 4 8 4 26 0 42 -5 15 -6 30 -3 33 5 5
6 48 4 99 -1 9 -4 17 -8 16 -5 0 -378 -373 -831 -827z"/>
<path d="M10114 13774 c-60 -63 -145 -152 -189 -198 -44 -45 -131 -136 -194
-202 -63 -65 -190 -198 -282 -294 -185 -192 -256 -266 -494 -515 -88 -92 -175
-183 -194 -201 -19 -19 -32 -37 -28 -40 5 -5 81 -8 102 -4 6 1 15 1 20 0 24
-5 156 -3 161 3 3 3 16 2 28 -2 11 -5 29 -5 40 -2 10 4 41 4 68 1 27 -4 51 -3
54 1 2 5 11 6 18 3 23 -9 116 -9 116 -1 0 5 5 5 11 2 9 -6 198 -10 224 -5 26
5 42 5 61 -1 11 -4 27 -4 34 1 7 4 23 5 34 0 11 -4 33 -4 48 1 16 4 28 5 28 1
0 -8 188 -7 196 1 3 3 16 2 28 -2 11 -5 29 -5 40 -2 10 4 41 4 68 1 27 -4 51
-3 54 1 2 5 11 6 18 3 23 -9 116 -9 116 -1 0 5 5 5 11 2 9 -6 198 -10 224 -5
26 5 42 5 61 -1 11 -4 27 -4 34 1 7 4 23 5 34 0 11 -4 33 -4 48 1 16 4 28 5
28 1 0 -8 188 -7 196 1 3 3 16 2 28 -2 11 -5 29 -5 40 -2 10 4 41 4 68 1 27
-4 51 -3 54 1 2 5 11 6 18 3 23 -9 116 -9 116 -1 0 5 5 5 11 2 9 -6 198 -10
224 -5 25 5 41 5 60 -1 10 -3 34 -3 52 1 18 5 33 4 33 0 0 -4 16 -4 34 0 19 4
37 5 40 3 7 -8 266 -9 266 -2 0 3 23 3 50 -1 28 -4 53 -3 56 1 2 4 17 4 33 -1
16 -4 32 -6 34 -4 2 3 7 -4 10 -16 3 -11 1 -22 -3 -25 -5 -3 -5 -19 0 -35 5
-17 5 -30 1 -30 -4 0 -5 -20 -1 -45 4 -25 3 -48 -1 -50 -4 -3 -4 -18 1 -34 4
-16 6 -32 3 -35 -8 -8 -9 -146 -1 -146 4 0 3 -12 -1 -28 -5 -15 -5 -37 0 -49
4 -12 4 -25 -1 -28 -5 -3 -5 -18 0 -34 4 -16 6 -32 3 -35 -9 -9 -9 -146 0
-146 5 0 5 -5 2 -10 -9 -14 -10 -103 -2 -116 3 -5 2 -16 -3 -24 -4 -7 -4 -24
0 -36 6 -14 5 -26 0 -29 -5 -3 -5 -18 0 -35 5 -17 5 -30 0 -30 -5 0 -5 -13 0
-30 5 -17 5 -30 0 -30 -5 0 -5 -13 0 -30 5 -17 5 -30 0 -30 -5 0 -5 -13 0 -30
5 -17 5 -30 0 -30 -5 0 -5 -13 0 -30 5 -17 5 -30 0 -30 -5 0 -5 -13 0 -30 5
-17 5 -30 0 -30 -5 0 -5 -13 0 -30 5 -17 5 -30 0 -30 -5 0 -5 -12 -1 -28 5
-15 5 -37 0 -49 -4 -12 -4 -25 1 -28 5 -3 5 -18 0 -35 -5 -17 -5 -30 -1 -30
14 0 0 -48 -15 -54 -8 -3 -14 0 -14 6 0 9 -3 9 -11 1 -7 -7 -21 -8 -40 -3 -17
5 -29 5 -29 0 0 -6 -10 -6 -25 0 -15 6 -26 6 -30 0 -4 -6 -13 -7 -24 -1 -10 6
-23 6 -31 1 -8 -5 -21 -5 -31 1 -11 6 -20 5 -24 -1 -4 -6 -12 -7 -22 -1 -9 4
-31 5 -49 1 -19 -4 -34 -4 -34 0 0 5 -13 5 -30 0 -16 -5 -30 -5 -30 -2 0 9
-64 7 -79 -2 -5 -4 -12 -2 -16 4 -4 7 -12 7 -24 0 -10 -5 -21 -7 -24 -4 -8 9
-97 10 -97 2 0 -4 -13 -3 -30 2 -19 5 -30 5 -30 -1 0 -6 -5 -7 -11 -4 -14 9
-233 10 -247 1 -6 -3 -13 -2 -17 4 -4 7 -12 7 -24 0 -10 -5 -21 -7 -24 -4 -9
9 -157 10 -157 2 0 -4 -10 -4 -22 1 -12 4 -37 5 -55 1 -18 -5 -33 -5 -33 -1 0
7 -68 6 -76 -2 -3 -3 -19 -1 -35 3 -17 5 -29 5 -29 0 0 -6 -10 -6 -25 0 -15 6
-26 6 -30 -1 -4 -5 -11 -7 -16 -3 -14 8 -99 10 -99 2 0 -4 -13 -3 -30 2 -19 5
-30 5 -30 -1 0 -6 -5 -7 -11 -3 -14 8 -225 8 -238 0 -5 -4 -11 0 -14 6 -2 8
-54 -38 -121 -106 -64 -66 -116 -121 -116 -121 0 -1 -51 -54 -112 -117 -62
-64 -174 -180 -248 -258 -74 -78 -171 -179 -215 -224 -44 -46 -163 -170 -265
-276 -102 -106 -212 -221 -245 -255 -201 -209 -234 -246 -234 -262 0 -10 0
-34 0 -53 0 -19 0 -42 0 -50 -3 -156 -1 -272 4 -280 3 -5 2 -10 -3 -10 -4 0
-6 -22 -2 -49 3 -27 3 -57 0 -67 -4 -10 -4 -33 0 -51 4 -18 5 -34 2 -37 -6 -7
-7 -95 0 -101 3 -3 2 -24 -1 -48 -4 -23 -4 -59 0 -80 3 -21 3 -40 -1 -42 -4
-3 -4 -22 0 -44 4 -22 4 -45 0 -51 -4 -6 -4 -29 0 -51 4 -21 5 -39 1 -39 -3 0
-5 -21 -4 -47 1 -27 2 -59 2 -73 1 -14 1 -43 2 -65 1 -22 1 -44 1 -50 -1 -8
-1 -143 -1 -225 0 -8 -1 -66 -2 -129 l-1 -115 38 -34 c32 -28 89 -79 188 -167
6 -6 54 -48 106 -95 52 -46 100 -89 106 -95 7 -5 40 -35 74 -65 34 -30 74 -66
89 -80 16 -14 61 -54 101 -90 40 -36 78 -69 84 -75 10 -9 115 -102 221 -195
21 -19 55 -49 75 -67 19 -17 49 -44 65 -58 17 -15 61 -55 99 -89 38 -33 77
-68 86 -76 116 -102 212 -188 245 -220 20 -20 42 -20 1782 -20 1752 0 1761 0
1766 20 3 11 1 20 -3 20 -5 0 -5 13 0 29 4 16 6 32 3 35 -9 9 -9 58 -1 83 4
12 3 25 -2 28 -6 4 -7 13 -1 24 6 10 6 23 1 31 -5 8 -6 18 -3 24 8 12 8 124 0
132 -3 4 -2 14 2 23 11 20 11 30 0 59 -5 12 -5 22 -1 22 8 0 7 122 -1 144 -4
9 -2 18 3 21 6 3 6 15 0 30 -6 15 -6 25 0 25 5 0 5 12 0 29 -4 15 -4 34 0 42
5 7 4 21 -1 30 -6 11 -5 20 1 24 6 3 6 15 0 29 -5 13 -6 27 -3 30 9 8 9 66 1
66 -4 0 -3 14 2 30 5 17 5 30 0 30 -4 0 -5 15 0 33 4 18 3 43 -1 55 -5 12 -5
22 -1 22 8 0 7 128 -1 137 -4 3 -2 13 3 22 5 10 5 23 0 31 -5 8 -5 19 -1 25
12 15 -7 58 -22 52 -8 -3 -20 -2 -27 3 -7 4 -24 4 -39 0 -14 -4 -36 -3 -49 1
-12 5 -22 5 -22 1 0 -4 -246 -8 -548 -8 -301 -1 -968 -5 -1482 -9 -514 -3
-941 -6 -947 -6 -7 1 -19 1 -25 2 -7 0 -54 -1 -104 -2 -50 -1 -97 1 -103 5 -6
4 -11 3 -11 -1 0 -7 -85 -9 -100 -3 -3 1 -13 1 -23 0 -15 -1 -18 7 -17 52 0
29 -1 60 -1 68 0 8 0 47 0 85 1 97 1 104 0 155 0 25 0 52 0 60 1 8 0 35 0 60
0 25 0 51 0 58 1 6 1 18 2 25 1 19 0 139 -2 172 0 17 -1 37 0 45 0 8 0 35 0
60 0 25 0 52 0 60 1 8 0 35 0 60 0 25 0 51 0 58 1 6 1 18 2 25 1 19 0 139 -2
172 0 17 -1 37 0 45 0 8 0 35 0 60 0 25 0 52 0 60 1 8 0 35 0 60 0 25 0 51 0
58 2 30 2 40 1 99 -1 34 1 66 4 72 4 5 3 12 -1 14 -7 4 -8 21 -4 85 1 9 17 12
56 9 30 -1 55 1 55 5 0 4 11 3 25 -2 15 -6 26 -6 30 0 4 6 13 7 24 1 10 -6 23
-6 31 -1 8 5 21 5 31 -1 11 -6 20 -5 24 1 4 6 12 7 22 1 9 -4 31 -5 49 -1 19
4 34 4 34 0 0 -5 14 -5 30 0 17 5 30 5 30 2 0 -9 64 -7 79 2 5 4 12 2 16 -4 4
-6 12 -7 24 -1 9 5 23 6 29 2 7 -4 33 -5 57 -1 25 4 45 4 45 1 0 -7 68 -6 76
2 3 3 19 1 35 -3 17 -5 29 -5 29 0 0 6 10 6 25 0 15 -6 26 -6 30 1 4 5 11 7
16 3 14 -8 99 -10 99 -2 0 4 14 3 30 -2 19 -5 30 -5 30 1 0 6 5 7 11 4 14 -9
233 -10 247 -1 6 3 13 2 17 -4 4 -7 12 -7 24 0 10 5 21 7 24 4 9 -9 157 -10
157 -2 0 4 10 4 22 -1 12 -4 37 -5 55 -1 18 5 33 5 33 1 0 -3 17 -5 37 -4 21
1 38 2 38 3 0 1 17 2 38 3 20 1 37 -1 37 -5 0 -4 11 -3 25 2 16 6 25 6 25 0 0
-6 9 -6 24 0 15 5 27 5 33 -1 7 -7 18 -1 32 17 11 15 21 23 21 19 0 -4 26 15
58 42 31 27 80 66 107 88 28 22 55 44 62 50 15 13 27 22 83 65 25 19 47 37 50
40 3 3 48 39 100 80 52 41 111 88 131 105 20 16 76 61 125 100 49 38 91 72 94
75 3 3 50 41 105 85 55 43 105 84 111 90 6 5 22 17 34 25 13 8 33 25 46 38 13
12 26 22 28 22 5 0 35 24 70 55 18 16 70 58 106 85 18 14 73 58 123 98 49 40
98 79 109 86 13 9 20 27 21 55 2 22 -1 41 -5 41 -3 0 -3 14 2 30 5 18 5 30 0
30 -6 0 -6 10 0 25 6 15 6 27 0 30 -6 3 -6 15 0 30 6 15 6 27 0 30 -6 4 -7 13
-1 24 5 9 6 23 1 31 -4 7 -4 24 0 36 6 14 5 26 0 29 -6 3 -6 15 0 30 6 15 6
27 0 30 -5 3 -6 15 -1 28 5 12 5 32 0 45 -5 12 -5 22 -1 22 8 0 7 122 -1 144
-4 9 -2 18 3 21 6 3 6 15 0 30 -6 15 -6 25 0 25 5 0 5 12 0 29 -4 15 -4 34 0
42 5 7 4 21 -1 30 -6 11 -5 20 1 24 6 3 6 15 0 29 -5 13 -6 27 -3 30 9 8 9 66
1 66 -4 0 -3 14 2 30 5 17 6 30 2 30 -8 0 -6 86 3 99 3 5 1 12 -5 16 -6 4 -7
12 -1 24 6 10 6 23 1 31 -5 8 -6 18 -3 24 8 12 8 124 0 132 -3 4 -2 14 2 23
13 24 13 24 2 54 -6 15 -7 27 -3 27 4 0 7 16 7 35 0 19 -3 35 -7 35 -4 0 -3
11 2 25 6 15 6 27 0 30 -6 3 -6 15 0 30 6 15 6 27 0 30 -6 4 -7 13 -1 24 5 9
6 23 1 31 -4 7 -4 24 0 36 6 14 5 26 0 29 -6 4 -7 13 -1 23 6 11 6 24 0 34 -6
11 -6 19 1 23 7 4 7 13 0 26 -6 10 -8 19 -5 19 3 0 -4 11 -17 23 -13 13 -47
50 -77 83 -30 32 -100 109 -156 169 -56 61 -117 126 -134 145 -18 19 -58 62
-89 95 -31 33 -109 116 -172 185 -63 68 -128 138 -144 155 -15 16 -69 74 -120
129 -50 54 -104 113 -121 131 -32 34 -202 216 -272 293 -24 26 -43 50 -43 55
0 4 -4 5 -10 2 -5 -3 -10 -2 -10 3 0 4 -20 29 -44 54 l-44 46 -1039 1 -1039 0
-110 -115z"/>
</g>
</svg>
