<?xml version="1.0" encoding="utf-8"?>
<!-- Generator: Adobe Illustrator 16.0.0, SVG Export Plug-In . SVG Version: 6.00 Build 0)  -->
<!DOCTYPE svg PUBLIC "-//W3C//DTD SVG 1.1//EN" "http://www.w3.org/Graphics/SVG/1.1/DTD/svg11.dtd">
<svg version="1.1" id="Layer_2" xmlns="http://www.w3.org/2000/svg" xmlns:xlink="http://www.w3.org/1999/xlink" x="0px" y="0px"
	 width="124px" height="50px" viewBox="0 0 124 50" enable-background="new 0 0 124 50" xml:space="preserve">
<polygon fill-rule="evenodd" clip-rule="evenodd" fill="#8ED5B6" points="8,41 18,41 18,0 8,10 "/>
<polygon fill-rule="evenodd" clip-rule="evenodd" fill="#80BFA3" points="25,50 17,50 8,41 34,41 "/>
<polygon fill-rule="evenodd" clip-rule="evenodd" fill="#80BFA3" points="20,19 0,19 8,10 28,10 "/>
<polygon fill-rule="evenodd" clip-rule="evenodd" fill="#F95E00" points="38,50 47,50 47,0 38,10 "/>
<polygon fill-rule="evenodd" clip-rule="evenodd" fill="#DB5404" points="38,19 28.741,19 38,9.741 38,9.741 "/>
<polygon fill-rule="evenodd" clip-rule="evenodd" fill="#F95E00" points="86,10 54.519,10 63.926,0.241 76.926,0.241 "/>
<polygon fill-rule="evenodd" clip-rule="evenodd" fill="#F95E00" points="77,30 54,30 64,20 77,20 "/>
<polygon fill-rule="evenodd" clip-rule="evenodd" fill="#F95E00" points="86,50 64,50 54.593,41.241 86,41 "/>
<polygon fill-rule="evenodd" clip-rule="evenodd" fill="#DB5404" points="86,22 76,30 76,10 86,10 "/>
<polygon fill-rule="evenodd" clip-rule="evenodd" fill="#DB5404" points="64,50 54,41.111 54,30 64,30 "/>
<polygon fill-rule="evenodd" clip-rule="evenodd" fill="#8ED5B6" points="98,41 108,41 108,0 98,10 "/>
<polygon fill-rule="evenodd" clip-rule="evenodd" fill="#80BFA3" points="115,50 107,50 98,41 124,41 "/>
<polygon fill-rule="evenodd" clip-rule="evenodd" fill="#80BFA3" points="110,19 90,19 98,10 118,10 "/>
</svg>
